# xmcd
#
# Track frame offsets:
#	150
#	13484
#	23122
#	34408
#	45476
#	57453
#	70274
#	81519
#	91580
#	103752
#	116724
#	132580
#	141836
#	152321
#	165188
#	179736
#	192522
#	205589
#
# Disc length: 2896 seconds
#
# Revision: 0
# Processed by: cddbd v1.4PL0 Copyright (c) Steve Scherf et al.
# Submitted via: dBpowerAMP V4.0
#
DISCID=fd0b4e12
DTITLE=Philomena Begley - The Collection
DYEAR=1900
DGENRE=Country
TTITLE0=Never Again
TTITLE1=Truck Drivin' Woman
TTITLE2=I'll Be All Smiles Tonight
TTITLE3=I Really Think I'm Crying
TTITLE4=How Can I Face Tomorrow
TTITLE5=Here Today And Gone Tomorrow
TTITLE6=Ramblin' Man
TTITLE7=You Never Were Mine
TTITLE8=Jeannie's Afraid Of The Dark
TTITLE9=What's Your Mama's Name
TTITLE10=My Elusive Dreams
TTITLE11=Darling Are You Ever Coming Home
TTITLE12=Philadelphia Lawyer
TTITLE13=A Village In County Tyrone
TTITLE14=My Little Son
TTITLE15=Old Arboe
TTITLE16=You're The One I Can't Live Without
TTITLE17=You And Me , Her And Him
EXTD=
EXTT0=
EXTT1=
EXTT2=
EXTT3=
EXTT4=
EXTT5=
EXTT6=
EXTT7=
EXTT8=
EXTT9=
EXTT10=
EXTT11=
EXTT12=
EXTT13=
EXTT14=
EXTT15=
EXTT16=
EXTT17=
PLAYORDER=
